<svg width="71" height="61" viewBox="0 0 71 61" fill="none" xmlns="http://www.w3.org/2000/svg">
<path d="M42.294 57.9107V39.1312H28.0053V57.9107M60.1549 22.7871V42.8871C60.1549 48.1457 60.1549 50.7751 58.9868 52.7836C57.9594 54.5504 56.3201 55.987 54.3036 56.8872C52.011 57.9107 49.0104 57.9107 43.0084 57.9107H27.2908C21.289 57.9107 18.2881 57.9107 15.9957 56.8872C13.9792 55.987 12.3398 54.5504 11.3124 52.7836C10.1444 50.7751 10.1444 48.1457 10.1444 42.8871V22.7851M67.2992 29.7415L47.8909 10.8493C43.4767 6.55264 41.2698 4.40431 38.6704 3.61122C36.3877 2.9146 33.9029 2.91475 31.6199 3.61166C29.0208 4.40512 26.8143 6.55371 22.401 10.8509L3 29.7415" stroke="#4093B3" stroke-width="5.59" stroke-linecap="round" stroke-linejoin="round"/>
</svg>
