<svg width="22" height="22" viewBox="0 0 22 22" fill="none" xmlns="http://www.w3.org/2000/svg">
<path fill-rule="evenodd" clip-rule="evenodd" d="M11.0002 2.52051C6.31986 2.52051 2.521 6.31937 2.521 10.9997C2.521 15.68 6.31986 19.4788 11.0002 19.4788C15.6805 19.4788 19.4793 15.68 19.4793 10.9997C19.4793 6.31937 15.6805 2.52051 11.0002 2.52051ZM1.146 10.9997C1.146 5.55998 5.56047 1.14551 11.0002 1.14551C16.4399 1.14551 20.8543 5.55998 20.8543 10.9997C20.8543 16.4394 16.4399 20.8538 11.0002 20.8538C5.56047 20.8538 1.146 16.4394 1.146 10.9997Z" fill="#F1F1F1"/>
<path fill-rule="evenodd" clip-rule="evenodd" d="M10.6611 6.19629C11.0408 6.19629 11.3486 6.50409 11.3486 6.88379V10.6421C11.3486 10.7829 11.4024 10.9869 11.5219 11.1964C11.6414 11.406 11.7896 11.556 11.91 11.6273L11.9118 11.6284L11.9118 11.6284L14.7534 13.3243C15.0795 13.5188 15.1861 13.9409 14.9915 14.2669C14.7969 14.593 14.3749 14.6996 14.0488 14.505L11.209 12.8102C11.2087 12.8101 11.2083 12.8099 11.208 12.8097C10.8339 12.5877 10.5332 12.2383 10.3275 11.8776C10.1216 11.5165 9.97363 11.0789 9.97363 10.6421V6.88379C9.97363 6.50409 10.2814 6.19629 10.6611 6.19629Z" fill="#F1F1F1"/>
</svg>
