<svg width="34" height="38" viewBox="0 0 34 38" fill="none" xmlns="http://www.w3.org/2000/svg">
<path d="M29.0004 28.9648C29.0004 29.5948 28.6004 30.0148 28.0004 30.0148H27.0004H26.0004H22.0004C21.4004 30.0148 21.0004 29.5948 21.0004 28.9648C21.0004 28.3348 21.4004 27.9148 22.0004 27.9148H26.0004H27.0004H28.0004C28.6004 27.9148 29.0004 28.3348 29.0004 28.9648ZM33.6004 28.9648C33.6004 33.8998 29.8004 37.8898 25.1004 37.8898C20.8004 37.8898 17.2004 34.4248 16.7004 30.0148H1.40039C1.10039 30.0148 0.900391 29.9098 0.700391 29.6998C0.500391 29.4898 0.400391 29.1748 0.400391 28.8598C0.800391 23.1898 4.40039 18.5698 9.20039 16.6798C6.80039 15.1048 5.20039 12.3748 5.20039 9.22477C5.20039 4.39477 8.90039 0.509766 13.5004 0.509766C18.1004 0.509766 21.8004 4.39477 21.8004 9.22477C21.8004 12.3748 20.2004 15.1048 17.8004 16.6798C19.8004 17.4148 21.5004 18.6748 23.0004 20.2498C23.6004 20.0398 24.3004 20.0398 25.0004 20.0398C29.8004 20.0398 33.6004 24.0298 33.6004 28.9648ZM13.6004 15.9448C17.1004 15.9448 19.9004 13.0048 19.9004 9.32977C19.9004 5.65477 17.1004 2.71477 13.6004 2.71477C10.1004 2.71477 7.30039 5.65477 7.30039 9.32977C7.30039 13.0048 10.1004 15.9448 13.6004 15.9448ZM16.6004 27.9148C16.9004 24.9748 18.6004 22.4548 21.0004 21.0898C19.0004 19.1998 16.4004 18.0448 13.5004 18.0448C8.00039 18.0448 3.30039 22.2448 2.50039 27.9148H16.6004ZM31.6004 28.9648C31.6004 25.1848 28.7004 22.1398 25.1004 22.1398C21.5004 22.1398 18.6004 25.1848 18.6004 28.9648C18.6004 32.7448 21.5004 35.7898 25.1004 35.7898C28.7004 35.7898 31.6004 32.7448 31.6004 28.9648Z" fill="black"/>
</svg>
